<?xml version="1.0" encoding="utf-8"?>
<svg xmlns="http://www.w3.org/2000/svg"
     x="0px" y="0px" width="100px" height="100px" viewBox="100 100 1000 1000" xml:space="preserve">
	<g fill="none" fill-rule="evenodd" id="start-screens" stroke="none" stroke-width="1">
		<path fill="#FFFFFF"
		      d="M335,397.2c12.6,0.1,23.5,2.5,32.5,7.5c9.1,5,16.5,12.6,22.4,22.8c8.4-10.3,17.5-17.9,27.2-22.9c9.7-5,20.4-7.4,32.1-7.4c13.7,0,31.6,4.7,41.5,10.1c9.9,5.4,17.3,13.1,22.2,23.1c4.3,9.1,7.4,23.3,7.4,42.8v97.9c0,10.5-2.4,18.4-7.2,23.7c-4.8,5.3-11.1,7.9-18.9,7.9c-7.6,0-13.8-2.7-18.7-8c-4.8-5.3-7.3-13.2-7.3-23.6v-97.6h-0.1c-0.2-19.3-14.8-34.9-32.7-34.9c-18.1,0-32.7,15.8-32.7,35.3c0,1.4-0.1,2.8,0.1,4.1v0v93c0,10.5-2.4,18.4-7.2,23.7c-4.8,5.3-11.1,7.9-18.9,7.9c-7.6,0-13.7-2.6-18.5-7.9c-4.7-5.3-7.1-13.2-7.1-23.7V470v0.2c-1.9-17.6-16.1-31.6-33.2-31.6c-17.4,0-31.9,14.2-33.3,32.3v0v100.2c0,10.4-2.4,18.3-7.1,23.6c-4.7,5.3-10.9,8-18.6,8c-7.6,0-13.8-2.7-18.6-8c-4.8-5.3-7.3-13.2-7.3-23.6l0-143.5v-2.6c0-14.9,12.1-27.1,27.1-27.1c15,0,27.1,12.1,27.1,27.1C287.4,425.1,292.5,396.7,335,397.2z"
		/>
		<path fill="#FFFFFF"
		      d="M707.3,283.7c-213.9-158.1-321.8-151.2-330-150.4v-0.6C174.5,132.7,10,297.1,10,500c0,200.3,160.3,363,359.6,367.1v0.2h14.8V867c139.2-8.4,360.2-164.7,360.2-164.7C824.2,648.7,990,515.1,990,515.1C928.6,446.3,707.3,283.7,707.3,283.7z M376.9,745.7c-135.7,0-245.7-110-245.7-245.7c0-135.7,110-245.7,245.7-245.7c135.7,0,245.7,110,245.7,245.7C622.5,635.7,512.6,745.7,376.9,745.7z"
		/>
	</g>
</svg>
